<?xml version="1.0" encoding="utf-8"?>
<!-- Generator: Adobe Illustrator 26.0.2, SVG Export Plug-In . SVG Version: 6.00 Build 0)  -->
<svg version="1.1" id="Layer_1" xmlns="http://www.w3.org/2000/svg" xmlns:xlink="http://www.w3.org/1999/xlink" x="0px" y="0px"
	 viewBox="0 0 226.8 226.8" style="enable-background:new 0 0 226.8 226.8;" xml:space="preserve">
<style type="text/css">
	.st0{fill:#5E72E4;}
</style>
<path class="st0" d="M221.7,121.9l-7.9-8.3c0.3-17.5-4.8-34.8-14.6-50.1c3.1-11.2,9-33.6,8-39.8c-1.2-8.3-9.9-21.9-30.5-20
	c-14.2,1.3-26.7,10.1-33.2,15.6C116.7,8.5,91.9,9.1,71.5,14.3c-6.9-4.5-18.9-10.3-27.6-4.1c-8,5.7-10.6,15.4-11.4,22c0,0,0,0-0.1,0
	C32.3,32.3,0,52,0,101c0,27.5,9.4,47.7,23.1,62.8c0.4,6.1,1.8,13.6,6.1,16.4c3.8,2.4,10,2.5,15.3,1.9c5.1,3.4,10.4,6.5,15.8,9.2
	c9.4,4.8,21.3,9.5,34.4,12.3c5.7,7.8,16.3,19.9,27.8,19.7c12.3-0.2,21.6-12.6,26.1-22c13.6-4.6,27-12.8,39.2-26
	c8,4.7,21.8-3.1,31.1-17.6C228.5,143,229.7,127,221.7,121.9z M124.4,35.7c0,0-17.1-10.8-33.6-12.7c-16.4-1.9-29.1,0.5-33.4,0.5
	l8.4-3.3c0,0,11.4-5.1,37.3-1.5c22.3,3.1,31.6,11.1,31.6,11.1L124.4,35.7z M174.5,109.5c-3.7,0.1-6.9-5.5-7.2-12.5
	c-0.3-7.1,2.5-12.9,6.2-13.1c3.7-0.1,6.9,5.5,7.2,12.6C181,103.5,178.2,109.4,174.5,109.5z M192.6,99.4c-3.1,0.1-5.8-4.6-6.1-10.6
	c-0.2-6,2.1-11,5.2-11.1c3.1-0.1,5.8,4.6,6.1,10.6C198.1,94.4,195.7,99.3,192.6,99.4z M207.3,153.2c-0.6,5.3-3.1,9.3-5.8,9.1
	c-2.6-0.3-4.3-4.8-3.7-10c0.6-5.3,3.1-9.3,5.8-9C206.2,143.5,207.9,148,207.3,153.2z M220,141.2c-0.5,4.8-2.8,8.5-5.1,8.3
	c-2.3-0.2-3.7-4.3-3.2-9.1c0.5-4.8,2.8-8.5,5.1-8.3C219.1,132.3,220.5,136.4,220,141.2z"/>
</svg>
